<?xml version="1.0" standalone="no"?>
<!DOCTYPE svg PUBLIC "-//W3C//DTD SVG 20010904//EN"
 "http://www.w3.org/TR/2001/REC-SVG-20010904/DTD/svg10.dtd">
<svg version="1.0" xmlns="http://www.w3.org/2000/svg"
 width="461.000000pt" height="465.000000pt" viewBox="0 0 461.000000 465.000000"
 preserveAspectRatio="xMidYMid meet">
<metadata>
Created by potrace 1.16, written by Peter Selinger 2001-2019
</metadata>
<g transform="translate(0.000000,465.000000) scale(0.100000,-0.100000)"
fill="#000000" stroke="none">
<path d="M880 3978 c-19 -6 -90 -8 -157 -6 -94 3 -120 1 -112 -8 13 -15 -3
-26 -25 -18 -12 5 -16 0 -16 -22 0 -23 -2 -26 -10 -14 -12 19 -11 21 -15 -75
-2 -44 -9 -96 -14 -115 -14 -45 -14 -235 0 -280 21 -70 28 -216 13 -266 -15
-49 -17 -151 -5 -194 7 -24 7 -24 14 9 4 18 7 70 8 115 1 77 1 79 14 51 8 -16
14 -49 15 -73 0 -24 6 -55 14 -70 7 -15 16 -46 20 -70 3 -24 13 -54 22 -67 12
-19 13 -31 5 -62 -14 -48 -14 -133 -1 -133 6 0 10 27 10 61 0 65 15 73 26 14
4 -24 1 -43 -10 -60 -9 -13 -16 -42 -16 -63 0 -21 -7 -47 -15 -58 -13 -17 -14
-13 -15 46 -1 36 -5 74 -9 84 -7 18 -8 18 -14 -5 -12 -42 -7 -113 8 -143 17
-31 12 -146 -7 -201 -6 -16 -15 -129 -20 -250 -5 -121 -11 -268 -14 -327 -4
-73 -2 -108 5 -108 7 0 11 38 11 108 1 98 2 105 16 87 16 -20 15 -112 -2 -223
-3 -23 -3 -59 1 -80 6 -31 9 -34 15 -17 5 11 9 51 9 89 1 53 4 67 13 58 16
-16 23 -118 9 -126 -6 -4 -11 -37 -11 -77 0 -44 4 -68 10 -64 6 3 10 38 10 77
0 60 2 69 14 59 17 -14 19 -82 4 -120 -5 -14 -6 -38 -2 -55 6 -27 8 -29 15
-11 4 11 8 33 8 48 1 16 5 25 11 22 6 -3 7 -31 3 -67 -5 -45 -3 -59 5 -54 7 4
12 18 12 32 0 13 5 24 10 24 16 0 24 -30 11 -43 -13 -13 -14 -46 -2 -66 7 -11
12 -6 18 20 9 34 9 34 22 10 9 -17 10 -26 2 -34 -14 -14 -14 -57 -1 -57 6 0
10 9 10 19 0 24 16 36 26 20 3 -6 2 -14 -4 -18 -6 -4 -7 -21 -2 -46 l7 -40 8
32 c10 44 24 32 22 -19 -1 -25 3 -43 11 -46 7 -2 12 -12 12 -23 0 -10 3 -18 8
-18 22 4 32 -3 32 -21 0 -11 5 -20 10 -20 6 0 10 9 10 21 0 12 4 17 11 14 5
-4 9 -17 8 -28 0 -12 0 -33 1 -47 1 -23 2 -22 14 9 11 30 13 31 25 17 12 -14
12 -18 -1 -29 -13 -10 -13 -16 -2 -37 13 -25 14 -25 14 -2 0 12 5 22 10 22 6
0 10 -6 9 -13 -1 -6 -1 -23 0 -37 2 -25 2 -25 11 -2 5 12 14 22 20 22 14 0 13
-13 -2 -28 -9 -9 -6 -12 15 -12 15 0 27 -4 27 -10 0 -5 -6 -10 -12 -10 -10 0
-9 -3 1 -9 7 -5 22 -6 32 -4 24 7 25 -6 1 -23 -19 -15 -11 -18 40 -14 14 1 29
-3 33 -9 4 -7 -4 -11 -19 -11 -14 0 -26 -4 -26 -10 0 -5 14 -10 30 -10 30 0
41 -14 17 -23 -6 -3 0 -6 16 -6 21 -1 27 -6 27 -22 0 -18 5 -21 35 -17 34 4
46 -4 25 -17 -20 -13 1 -24 35 -18 23 4 35 2 35 -6 0 -6 -9 -11 -20 -11 -11 0
-20 -5 -20 -11 0 -8 14 -9 44 -5 52 8 71 -8 23 -19 -31 -7 -32 -7 -7 -15 14
-4 31 -4 39 0 17 9 51 1 51 -11 0 -5 -11 -9 -25 -9 -14 0 -25 -5 -25 -11 0 -8
17 -9 54 -5 64 8 86 -8 24 -18 -22 -4 -39 -9 -36 -11 9 -9 54 -12 80 -4 30 8
68 2 68 -12 0 -5 -21 -9 -46 -9 -31 0 -43 -4 -38 -11 5 -8 31 -10 85 -5 49 4
80 3 84 -4 4 -6 -7 -10 -27 -11 -18 0 -42 -4 -53 -8 -34 -14 43 -22 88 -10 43
11 111 4 102 -12 -4 -5 -31 -9 -61 -9 -38 0 -53 -4 -48 -11 4 -8 42 -9 124 -4
82 5 120 4 124 -4 5 -7 -11 -11 -51 -12 -32 -1 -69 -4 -83 -8 -38 -12 77 -25
132 -16 39 7 65 8 144 6 14 -1 22 -5 19 -11 -3 -5 -42 -10 -86 -10 -58 0 -78
-3 -73 -11 5 -9 42 -10 133 -4 163 10 135 9 442 1 186 -5 269 -4 274 3 4 8
-31 11 -112 12 -65 1 -129 4 -143 8 -51 16 68 24 196 13 128 -10 188 -7 148 9
-10 4 -50 8 -89 9 -60 1 -66 3 -40 11 17 5 73 7 126 3 66 -4 99 -2 103 5 5 7
-11 11 -48 11 -31 0 -56 4 -56 9 0 15 42 20 94 12 27 -5 58 -6 70 -3 19 5 19
6 0 13 -10 4 -32 8 -47 8 -18 1 -26 5 -21 12 4 7 26 8 64 4 38 -4 60 -3 64 4
5 7 -5 11 -28 11 -20 0 -36 4 -36 9 0 16 41 24 64 12 14 -8 30 -9 46 -3 24 9
24 10 -13 17 -28 6 -35 10 -27 20 8 9 20 10 49 2 22 -6 46 -7 57 -2 15 7 12
10 -21 15 -39 6 -39 7 -15 17 15 6 36 7 54 2 16 -5 36 -4 45 1 13 7 10 10 -14
15 -50 11 -51 12 -25 22 16 7 30 7 41 0 10 -6 24 -7 35 -2 18 8 17 9 -3 12
-41 7 -24 23 25 24 44 1 45 2 20 12 -41 16 -34 31 11 23 23 -3 42 -2 46 4 4 6
-5 10 -19 10 -14 0 -26 4 -26 9 0 15 32 22 46 10 16 -13 48 -4 39 11 -3 5 -16
10 -28 10 -19 0 -18 3 13 35 29 30 35 32 45 18 14 -19 55 -9 55 13 0 8 8 14
19 14 11 0 21 9 25 22 9 34 8 38 -9 38 -8 0 -15 -9 -15 -20 0 -14 -7 -20 -21
-20 -15 0 -19 -4 -14 -19 5 -16 2 -18 -15 -14 -11 3 -20 9 -18 14 2 4 48 54
104 111 55 57 103 111 107 121 3 9 14 17 24 17 16 -1 16 -2 2 -13 -21 -16 -40
-53 -32 -61 12 -12 23 -6 23 14 0 13 7 20 20 20 13 0 20 7 20 20 0 11 7 20 15
20 10 0 15 10 15 30 0 17 -4 30 -10 30 -5 0 -10 -11 -10 -24 0 -19 -4 -23 -20
-19 -18 5 -17 8 12 44 32 39 52 51 42 25 -3 -8 -1 -23 4 -33 9 -15 11 -11 17
21 5 26 4 41 -5 46 -9 6 -10 12 -2 26 10 17 12 16 18 -13 3 -18 10 -33 15 -33
13 0 11 37 -3 60 -10 16 -10 23 3 36 15 14 17 13 23 -18 5 -26 9 -30 16 -18
13 20 13 57 0 65 -15 9 -12 42 5 49 11 4 15 -2 15 -24 0 -16 4 -32 10 -35 6
-4 10 10 10 34 0 22 -5 41 -12 43 -10 4 -10 11 2 34 l14 29 5 -38 c4 -21 11
-39 16 -40 14 -3 19 61 6 77 -13 16 -8 73 8 89 8 8 11 -5 12 -48 0 -52 2 -57
12 -37 8 17 8 38 -1 82 -10 45 -10 64 0 86 l12 29 3 -35 c6 -66 14 -100 23
-100 16 0 12 104 -5 126 -17 23 -11 122 11 166 21 42 20 537 -2 638 -13 59
-14 98 -8 180 8 113 9 242 3 387 -3 65 0 96 9 104 10 10 12 -9 13 -96 0 -71 3
-103 9 -90 13 29 12 119 -2 209 -9 61 -9 121 1 275 7 108 17 198 22 199 12 5
12 72 0 72 -5 0 -12 50 -16 110 -5 84 -10 110 -21 110 -9 0 -14 11 -14 32 l0
31 -129 -6 c-84 -5 -139 -3 -160 4 -38 13 -120 2 -86 -11 11 -5 37 -9 58 -9
25 -1 36 -5 32 -12 -5 -7 -34 -8 -90 -4 -56 5 -85 4 -89 -4 -5 -7 7 -11 38
-11 25 0 48 -4 51 -10 10 -16 -41 -23 -78 -11 -39 13 -99 5 -75 -10 7 -5 28
-9 46 -9 17 0 32 -4 32 -9 0 -12 -46 -20 -62 -10 -18 12 -86 11 -93 -1 -4 -6
12 -10 39 -10 25 0 46 -4 46 -9 0 -17 -40 -23 -76 -11 -40 13 -98 5 -73 -11 7
-5 26 -9 42 -9 15 0 27 -5 27 -11 0 -7 -26 -8 -80 -3 -57 5 -80 3 -80 -5 0 -6
18 -11 45 -11 25 0 45 -4 45 -10 0 -5 -6 -10 -12 -11 -11 0 -309 0 -360 1 -10
0 -18 5 -18 10 0 6 28 10 63 10 49 1 58 3 43 11 -12 7 -51 9 -110 5 -56 -4
-97 -3 -106 4 -11 7 -5 10 25 10 22 0 58 3 80 7 l40 7 -40 7 c-22 4 -75 2
-117 -4 -63 -9 -82 -8 -105 4 -27 13 -24 14 62 19 59 4 84 8 72 14 -9 4 -50 5
-90 1 -98 -10 -243 -9 -292 3 -33 8 -18 10 90 12 72 1 141 5 155 9 56 17 -74
23 -238 11 -93 -7 -209 -10 -258 -6 -49 3 -128 9 -176 12 -98 7 -201 -4 -158
-17 14 -4 77 -8 140 -8 84 -1 110 -4 97 -12 -21 -12 -173 -15 -275 -4 -50 5
-77 4 -85 -4 -8 -8 9 -11 66 -11 42 0 77 -4 77 -9 0 -16 -89 -24 -130 -12 -41
12 -111 4 -88 -10 7 -5 28 -9 46 -9 17 0 32 -5 32 -11 0 -7 -28 -8 -89 -4 -61
5 -90 4 -95 -4 -5 -8 10 -11 48 -11 31 0 56 -4 56 -10 0 -16 -46 -23 -82 -12
-28 8 -172 8 -327 -1 -20 -1 -36 3 -38 11 -3 8 9 12 42 12 32 0 44 4 39 11 -5
8 -30 9 -80 5 -49 -5 -74 -3 -74 4 0 5 12 10 28 10 15 0 33 4 41 9 24 15 -26
24 -65 11 -37 -12 -84 -7 -84 10 0 6 21 10 46 10 27 0 43 4 39 10 -8 12 -82
13 -89 1 -7 -10 -54 -2 -62 10 -3 5 10 9 28 9 18 0 39 4 47 9 25 16 -25 23
-68 10 -41 -12 -91 -6 -91 11 0 6 23 10 51 10 35 0 48 3 43 11 -4 8 -25 9 -63
5 -72 -10 -103 -8 -115 4 -7 7 5 10 35 10 51 0 81 13 54 24 -22 8 -53 6 -95
-6z m-56 -63 c68 -16 97 -27 236 -93 329 -154 372 -172 415 -172 37 0 163 39
290 91 175 71 320 94 585 94 285 -1 340 -12 781 -171 l67 -24 178 86 c255 123
369 172 435 189 63 17 119 20 119 6 0 -4 15 -12 32 -17 28 -8 34 -16 41 -52 4
-23 12 -40 16 -38 8 5 4 -188 -5 -213 -3 -9 -8 -10 -17 -3 -7 6 -18 7 -26 2
-8 -4 -20 -6 -26 -4 -9 4 -14 -26 -20 -108 -7 -120 -31 -264 -65 -388 -11 -41
-20 -94 -20 -117 0 -23 -4 -45 -10 -48 -9 -6 -70 70 -70 88 0 5 16 44 35 87
41 92 45 142 13 164 -33 23 -50 20 -108 -19 -29 -19 -58 -35 -66 -35 -7 0 -44
28 -81 63 -392 364 -691 509 -1120 541 l-73 5 0 -98 0 -98 70 -7 c141 -14 349
-75 481 -141 99 -50 235 -145 336 -234 51 -45 94 -81 98 -81 17 0 55 -56 55
-81 0 -41 -40 -66 -79 -50 -35 15 -56 52 -48 83 13 47 -215 230 -396 318 -143
69 -340 123 -477 132 l-45 3 -3 -91 -3 -91 105 -17 c341 -55 613 -234 835
-548 97 -138 85 -133 289 -126 149 5 171 11 249 74 53 43 92 120 128 255 15
57 33 124 40 149 l13 45 -5 -45 c-3 -25 -11 -70 -19 -100 -40 -162 -55 -248
-50 -280 3 -19 2 -29 -2 -23 -6 9 -24 -3 -63 -40 -95 -92 -84 -90 -489 -98
-316 -6 -364 -9 -435 -28 -118 -31 -220 -85 -286 -150 -74 -74 -99 -140 -106
-276 -8 -153 21 -345 52 -345 19 0 22 21 29 151 14 270 117 401 372 471 73 20
107 22 471 26 l393 4 11 -29 c6 -15 15 -72 21 -125 13 -120 1 -178 -45 -225
l-31 -33 -217 0 c-184 0 -220 -2 -233 -16 -25 -25 -19 -45 29 -91 40 -38 51
-43 91 -43 42 0 46 -2 60 -36 18 -43 13 -75 -33 -209 -80 -229 -215 -426 -383
-556 -46 -36 -79 -68 -76 -75 11 -27 199 -284 209 -284 6 0 35 19 66 42 315
236 540 569 636 943 13 50 24 79 24 65 1 -27 -38 -180 -63 -247 -24 -66 -75
-170 -126 -258 -116 -202 -350 -453 -533 -570 -60 -39 -132 -85 -160 -104 -70
-47 -199 -106 -272 -125 -213 -55 -248 -60 -445 -64 -153 -3 -216 -1 -295 13
-164 28 -342 74 -410 105 -11 5 -49 21 -85 36 -57 23 -128 64 -240 140 -73 49
-139 114 -134 132 5 13 4 14 -4 3 -8 -11 -20 -5 -63 27 -141 107 -407 486
-426 606 -3 23 -14 57 -24 77 -21 42 -63 230 -78 348 -6 46 -10 134 -9 195 0
61 3 96 5 79 l4 -33 212 0 212 0 17 30 c26 45 58 54 84 24 20 -24 34 -23 34 2
0 27 -65 34 -311 34 l-249 0 0 33 c0 24 3 28 10 17 8 -13 51 -16 265 -18 193
-3 255 -1 255 8 0 7 6 10 14 7 10 -4 18 5 25 25 13 37 5 50 -15 24 -13 -18
-14 -16 -13 25 0 24 3 38 6 32 9 -24 30 -13 40 21 6 19 8 37 5 40 -7 8 -138 7
-250 0 l-92 -7 0 -28 c0 -32 -40 -69 -75 -69 -36 0 -75 37 -75 71 0 26 -4 29
-30 29 -23 0 -31 -5 -34 -22 -3 -13 -10 -43 -15 -68 -7 -37 -9 -40 -10 -15 -1
42 33 193 64 284 30 90 31 115 4 166 -27 52 -46 104 -69 190 -28 104 -60 256
-59 280 0 11 12 -29 25 -90 31 -143 91 -335 113 -364 l18 -23 39 62 40 63 -22
46 c-48 99 -113 412 -115 546 0 39 -3 63 -6 55 -8 -21 -26 -31 -34 -18 -5 8
-13 6 -25 -7 -17 -17 -18 -17 -24 1 -4 11 -10 67 -14 126 -6 97 -4 113 15 158
12 27 24 50 28 51 45 6 67 12 69 20 5 13 52 11 126 -6z m2984 -1960 c6 -6 -27
-157 -54 -244 -38 -123 -103 -264 -178 -384 -42 -66 -66 -116 -66 -134 0 -44
-25 -73 -64 -73 -38 0 -56 15 -56 48 0 34 17 60 51 77 33 18 114 136 172 251
46 92 102 253 122 351 26 131 23 125 48 117 12 -3 24 -8 25 -9z"/>
<path d="M3520 3772 c-156 -71 -283 -136 -286 -147 -2 -6 24 -28 57 -50 33
-22 66 -44 72 -49 8 -5 61 26 155 93 136 98 160 117 127 105 -14 -6 -49 19
-39 28 3 3 -6 3 -19 1 -42 -8 -40 15 3 37 22 11 40 23 40 25 0 7 6 9 -110 -43z"/>
<path d="M1110 3765 c10 -11 9 -18 -4 -30 -9 -9 -16 -13 -16 -9 0 5 -5 3 -12
-4 -7 -7 -23 -12 -37 -12 -21 0 -9 -11 54 -51 44 -28 110 -72 148 -97 l67 -45
71 47 c39 26 67 51 63 56 -23 22 -317 160 -341 160 -3 0 0 -7 7 -15z"/>
<path d="M812 3704 c-18 -12 -21 -19 -11 -30 6 -8 19 -14 29 -14 13 0 21 -14
30 -52 7 -29 30 -101 51 -160 l38 -108 -25 0 c-18 0 -32 12 -54 47 -16 26 -32
54 -35 64 -5 13 -12 15 -33 10 -26 -8 -27 -10 -25 -71 3 -106 68 -371 91 -370
4 1 34 40 68 88 l61 86 -31 21 c-44 29 -48 84 -9 114 33 27 69 21 98 -14 l21
-25 88 89 88 88 -114 81 c-123 88 -239 157 -278 167 -15 3 -34 -1 -48 -11z"/>
<path d="M3734 3682 c-49 -27 -167 -114 -250 -183 l-41 -35 102 -108 c95 -100
103 -106 109 -83 3 13 36 57 72 98 75 83 90 112 109 211 23 124 -5 153 -101
100z"/>
<path d="M1785 3440 c4 -6 11 -8 16 -5 5 4 9 1 9 -4 0 -10 -7 -13 -26 -10 -4
0 -10 -5 -14 -11 -4 -7 -23 -16 -41 -21 -24 -6 -9 -7 51 -4 47 3 178 5 293 5
l207 0 0 30 0 30 -251 0 c-167 0 -248 -3 -244 -10z"/>
<path d="M1715 3340 c-27 -4 -48 -8 -45 -10 3 -1 138 -5 300 -9 281 -6 309 -4
310 22 0 9 -496 7 -565 -3z"/>
<path d="M2350 3261 l0 -69 56 -7 c181 -22 390 -116 514 -232 34 -31 64 -52
68 -47 5 5 25 30 45 56 l37 46 -53 47 c-101 92 -244 175 -381 221 -74 26 -210
54 -257 54 l-29 0 0 -69z"/>
<path d="M1263 3280 c48 -9 59 -20 21 -21 -16 0 -60 -3 -97 -5 -53 -3 -67 -2
-61 8 5 8 0 7 -11 -2 -16 -13 8 -16 236 -22 l254 -7 45 29 45 30 -235 -1
c-129 -1 -218 -5 -197 -9z"/>
<path d="M1673 3255 l-28 -24 141 -1 c78 0 154 5 170 10 16 6 58 17 94 24 64
14 61 14 -142 15 -206 1 -207 1 -235 -24z"/>
<path d="M1026 3165 l-26 -34 107 -3 c73 -2 117 1 136 10 33 15 60 9 104 -24
26 -19 36 -22 57 -14 28 10 156 89 156 96 0 2 -114 4 -254 4 l-254 0 -26 -35z"/>
<path d="M1500 3120 c-58 -44 -118 -96 -135 -115 -16 -19 -41 -39 -55 -44 -59
-21 -129 46 -115 110 l7 29 -110 0 -110 0 -30 -37 c-16 -21 -46 -64 -66 -95
l-37 -58 325 0 c214 0 327 4 331 10 4 6 -5 20 -19 31 -32 25 -34 66 -5 103 25
32 64 34 96 4 19 -18 27 -20 41 -11 40 25 180 112 212 131 l35 22 -130 0 -130
-1 -105 -79z"/>
<path d="M864 2873 c-27 -4 -54 -33 -54 -58 0 -3 134 -5 298 -5 l298 0 27 28
c15 15 27 31 27 35 0 7 -540 7 -596 0z"/>
<path d="M791 2758 c-5 -15 -4 -26 3 -30 6 -4 133 -8 282 -8 246 0 272 2 286
18 37 43 44 42 -267 42 l-296 0 -8 -22z"/>
<path d="M1005 2692 l-250 -3 -17 -34 -18 -35 288 0 288 0 17 35 c9 20 17 38
17 40 0 3 -17 4 -37 3 -21 -2 -150 -4 -288 -6z"/>
<path d="M1368 2579 c-19 -45 -23 -66 -15 -70 7 -4 48 -10 92 -13 206 -18 373
-81 456 -173 70 -77 104 -173 125 -348 8 -71 19 -134 24 -139 34 -34 65 206
49 371 -19 187 -112 291 -322 363 -102 34 -205 57 -308 66 l-76 6 -25 -63z"/>
<path d="M833 2583 l-121 -4 -11 -29 -10 -30 40 0 c22 0 48 4 58 10 12 6 34 4
66 -5 37 -12 87 -14 224 -10 171 6 176 6 183 28 14 48 17 47 -149 45 -87 -1
-213 -4 -280 -5z"/>
<path d="M3231 2348 c-26 -86 -105 -175 -199 -222 -64 -32 -171 -62 -256 -71
-124 -14 -80 -45 62 -45 263 1 463 122 466 282 1 36 -4 52 -23 72 -14 14 -27
26 -31 26 -4 0 -12 -19 -19 -42z"/>
<path d="M1394 2345 c-13 -20 -19 -47 -19 -85 0 -101 73 -176 215 -222 70 -22
277 -36 345 -24 59 11 36 30 -47 38 -241 22 -409 122 -458 271 l-17 51 -19
-29z"/>
<path d="M640 2112 l0 -39 77 -7 c122 -10 421 -7 428 4 4 6 10 8 14 6 13 -8
29 8 32 34 5 30 16 29 -318 36 l-233 5 0 -39z"/>
<path d="M650 2000 l0 -37 128 -6 c70 -4 162 -7 205 -7 l77 0 2 30 c0 17 1 35
2 41 1 8 -59 12 -206 14 l-208 2 0 -37z"/>
<path d="M1176 1935 c-20 -15 -77 -20 -89 -9 -7 7 -189 6 -195 -1 -2 -2 6 -17
19 -34 l23 -31 -21 -28 c-29 -39 -83 -43 -112 -6 -25 32 -26 52 -5 82 l15 22
-81 0 c-78 0 -80 -1 -76 -22 24 -110 68 -286 75 -296 6 -11 14 -8 36 12 40 37
79 35 98 -6 37 -82 3 -142 -69 -120 -18 5 -34 8 -34 6 0 -13 89 -180 131 -245
91 -142 89 -145 89 98 l0 210 -40 18 c-22 10 -45 24 -51 32 -20 23 34 16 72
-10 l34 -23 5 -239 c5 -231 11 -285 31 -254 5 8 9 31 9 52 0 20 5 37 10 37 6
0 10 -29 10 -68 l0 -68 69 -75 c38 -41 73 -70 77 -66 12 11 26 488 18 596 l-6
83 37 38 c29 29 36 44 32 62 -15 64 -81 268 -86 268 -3 0 -15 -7 -25 -15z
m-101 -353 l-7 -278 35 4 c48 6 87 -32 87 -83 0 -31 -5 -38 -31 -49 -37 -16
-72 -10 -95 15 -16 17 -17 52 -18 344 -1 312 0 325 18 325 18 0 18 -10 11
-278z"/>
<path d="M2170 1691 c-74 -12 -89 -19 -96 -47 -9 -34 10 -58 129 -165 l105
-93 7 -103 c4 -66 12 -106 20 -113 21 -18 35 19 46 123 10 92 10 92 52 126 90
74 177 169 177 195 0 28 -22 53 -59 68 -33 13 -309 19 -381 9z"/>
<path d="M1283 1608 l-32 -33 -3 -335 -3 -335 33 3 32 4 0 283 c0 306 -1 300
57 322 20 8 20 9 -16 66 l-37 57 -31 -32z"/>
<path d="M1430 1393 c-24 -17 -42 -22 -62 -18 l-28 7 0 -246 c0 -152 4 -247
10 -251 14 -9 12 -59 -2 -74 -11 -10 -6 -18 22 -41 19 -16 47 -36 61 -44 l27
-16 7 163 c3 89 5 248 3 352 l-3 191 -35 -23z"/>
<path d="M1492 1043 l3 -358 60 -32 c79 -43 109 -44 66 -4 -17 16 -31 34 -31
39 0 20 52 72 71 72 17 0 19 8 19 99 l0 100 -33 -6 c-68 -11 -115 68 -66 113
18 17 20 28 18 131 l-2 113 -54 46 -53 46 2 -359z"/>
<path d="M1620 1188 c4 -83 7 -93 25 -96 32 -6 65 -43 65 -73 0 -15 -4 -30
-10 -34 -5 -3 -6 -15 -1 -28 5 -12 11 -84 15 -160 6 -136 6 -138 -18 -162
l-24 -24 50 -21 c52 -22 209 -72 266 -85 31 -6 45 6 22 20 -5 3 -10 19 -10 35
0 29 32 63 71 75 17 6 19 16 19 96 l0 89 -135 0 -135 0 0 -35 c0 -33 2 -35 34
-35 36 0 96 -40 96 -65 0 -7 -12 -24 -26 -39 -35 -35 -92 -36 -131 -2 -25 22
-26 26 -14 52 10 22 13 88 12 254 -1 197 -3 226 -18 235 -9 6 -45 29 -81 53
-36 23 -67 42 -71 42 -3 0 -4 -42 -1 -92z"/>
<path d="M2866 1201 c-24 -26 -135 -83 -226 -115 -61 -22 -228 -56 -277 -56
-9 0 -13 -22 -13 -78 l0 -77 98 7 c53 3 142 18 197 33 108 28 322 124 331 149
6 14 -56 125 -81 146 -8 7 -17 4 -29 -9z"/>
<path d="M1822 1008 l3 -153 228 -3 227 -2 0 35 0 36 -157 -2 c-149 -2 -157
-1 -173 19 -47 57 -28 138 33 144 28 3 20 8 -60 41 -51 20 -95 37 -98 37 -3 0
-4 -69 -3 -152z"/>
<path d="M2059 1046 c18 -19 22 -33 19 -60 l-4 -34 92 -7 c51 -4 97 -4 103 -1
6 4 11 22 11 40 0 37 -15 46 -77 46 -17 0 -60 9 -95 20 -34 11 -65 20 -67 20
-3 0 6 -11 18 -24z"/>
<path d="M2996 1012 c-17 -27 -240 -120 -362 -151 -61 -15 -236 -41 -279 -41
-3 0 -5 -79 -5 -177 l0 -176 98 7 c96 7 227 28 238 38 3 3 -9 52 -26 108 -32
103 -32 126 4 118 11 -2 28 -37 50 -101 19 -54 37 -101 40 -104 16 -16 336
113 336 135 0 4 -27 49 -60 100 -55 85 -58 93 -40 102 31 16 36 13 86 -57 74
-106 82 -113 110 -101 13 6 24 16 24 22 -1 16 -183 279 -197 283 -6 2 -14 0
-17 -5z"/>
<path d="M2120 728 c0 -90 0 -92 31 -118 28 -22 31 -30 24 -58 -4 -18 -18 -40
-32 -49 -23 -16 -24 -17 -7 -24 11 -4 49 -8 87 -8 l67 -1 0 175 0 175 -85 0
-85 0 0 -92z"/>
<path d="M4097 2500 c-9 -74 -8 -680 2 -704 7 -18 8 -18 14 5 9 32 7 652 -2
709 l-7 45 -7 -55z"/>
<path d="M537 2381 c-9 -43 -7 -488 2 -521 7 -24 7 -24 14 9 9 43 8 442 -2
501 l-7 45 -7 -34z"/>
</g>
</svg>
