<?xml version="1.0" standalone="no"?>
<!DOCTYPE svg PUBLIC "-//W3C//DTD SVG 20010904//EN"
 "http://www.w3.org/TR/2001/REC-SVG-20010904/DTD/svg10.dtd">
<svg version="1.0" xmlns="http://www.w3.org/2000/svg"
 width="310.000000pt" height="316.000000pt" viewBox="0 0 310.000000 316.000000"
 preserveAspectRatio="xMidYMid meet">

<g transform="translate(0.000000,316.000000) scale(0.100000,-0.100000)"
fill="#000000" stroke="none">
<path d="M2717 3052 c-16 -18 -17 -21 -3 -29 13 -7 10 -11 -14 -20 -18 -7 -32
-7 -36 -2 -3 5 4 9 16 9 12 0 18 5 15 10 -9 15 -34 12 -51 -5 -11 -10 -11 -15
-3 -15 6 0 0 -9 -14 -20 -14 -11 -29 -20 -34 -20 -4 0 -2 4 6 9 8 6 9 11 3 15
-6 4 -20 -3 -31 -15 -11 -12 -25 -18 -31 -14 -7 4 -25 -2 -41 -14 -15 -11 -33
-21 -39 -21 -5 0 -10 -9 -10 -20 0 -11 -5 -20 -11 -20 -5 0 -7 5 -4 10 3 6 1
10 -5 10 -18 0 -23 -29 -9 -48 13 -16 12 -16 -6 -1 -35 28 -49 34 -43 17 7
-17 -29 -43 -55 -39 -9 1 -17 -1 -16 -6 4 -22 -4 -28 -38 -31 -21 -1 -42 -7
-48 -13 -7 -7 -4 -8 9 -3 14 5 17 4 12 -4 -4 -7 -1 -15 7 -18 7 -2 14 -11 14
-19 0 -12 -3 -12 -15 -3 -11 10 -18 8 -32 -10 -23 -28 -36 -28 -51 0 l-12 22
-14 -21 c-12 -17 -19 -20 -38 -13 -13 5 -25 7 -28 4 -2 -2 -35 -7 -73 -9 -46
-3 -64 -1 -54 5 12 8 10 10 -10 11 -14 1 -28 1 -32 0 -5 0 -8 4 -8 10 0 6 -10
9 -22 8 -13 -1 -30 0 -38 3 -20 7 -179 28 -211 28 -20 0 -21 -2 -9 -11 12 -9
11 -10 -5 -4 -43 14 -108 18 -101 7 5 -9 -7 -12 -41 -14 -152 -5 -188 -7 -255
-21 -28 -5 -34 -17 -11 -23 15 -4 20 -11 16 -22 -5 -11 -3 -13 7 -7 9 5 11 4
6 -3 -4 -7 -16 -12 -27 -12 -15 0 -19 5 -14 19 7 23 -18 31 -95 30 -40 0 -50
-3 -35 -9 16 -7 17 -9 3 -9 -9 -1 -21 5 -25 12 -10 14 -39 33 -73 47 -14 6
-32 14 -40 20 -41 27 -135 68 -144 63 -5 -4 -7 1 -3 11 6 15 2 17 -26 12 -23
-4 -26 -3 -12 3 18 7 16 10 -20 26 -46 21 -50 22 -70 24 -8 0 -15 8 -15 16 0
9 -6 12 -15 9 -8 -4 -15 -1 -15 5 0 6 -7 11 -15 11 -8 0 -15 7 -15 15 0 8 -3
14 -7 13 -13 -3 -53 13 -53 22 0 14 -28 19 -59 10 -24 -7 -31 -5 -31 5 0 10 6
12 18 8 15 -6 15 -5 3 11 -8 9 -20 15 -27 12 -7 -3 -14 0 -16 5 -2 6 -12 2
-23 -8 -19 -17 -20 -30 -17 -393 2 -269 6 -371 13 -360 9 12 9 11 3 -5 -4 -11
-9 -35 -12 -52 -2 -18 -7 -33 -11 -33 -5 0 -13 -12 -19 -26 -7 -14 -16 -23
-21 -20 -9 6 -26 -22 -23 -36 1 -5 -2 -8 -8 -8 -5 0 -10 -5 -10 -11 0 -5 4 -8
9 -5 5 3 12 -1 15 -10 3 -8 10 -13 15 -9 5 3 13 0 17 -6 5 -8 3 -9 -6 -4 -10
6 -12 4 -7 -8 3 -9 -1 -18 -9 -21 -24 -9 -26 -8 -14 14 9 16 8 20 -5 20 -8 0
-18 0 -22 0 -4 0 -7 -10 -8 -22 0 -13 -8 -34 -17 -48 -16 -22 -18 -22 -18 -5
0 11 -11 -4 -25 -33 -14 -30 -25 -63 -25 -73 0 -10 -4 -19 -10 -19 -5 0 -10
-16 -10 -35 0 -19 5 -35 10 -35 6 0 9 -19 9 -42 l-1 -43 -8 38 c-8 41 -30 74
-30 45 0 -9 -4 -18 -9 -20 -6 -1 -13 -39 -17 -83 -4 -44 -11 -83 -16 -86 -5
-3 -11 -60 -13 -125 -2 -76 -1 -105 4 -79 10 47 12 33 15 -95 2 -52 6 -106 10
-120 6 -19 5 -21 -3 -10 -8 12 -11 12 -11 2 0 -8 9 -16 20 -19 24 -6 26 -19 5
-27 -23 -8 -17 -76 7 -76 5 0 7 4 4 8 -3 4 10 9 29 9 27 1 32 -2 27 -16 -9
-24 -30 -43 -36 -32 -4 5 0 11 6 14 7 2 10 8 6 12 -4 4 -14 0 -23 -8 -17 -17
-20 -32 -5 -22 6 4 10 -5 10 -19 0 -14 5 -26 11 -26 6 0 8 -8 4 -19 -4 -13 0
-20 13 -23 11 -3 23 -22 31 -47 12 -42 12 -42 30 -22 10 12 21 21 25 21 12 0
6 -16 -17 -40 -26 -29 -25 -40 9 -77 13 -14 23 -28 22 -32 -1 -3 5 -19 15 -36
l16 -30 1 29 c0 40 9 29 12 -17 1 -20 4 -35 6 -32 2 2 17 -12 34 -31 16 -19
34 -31 39 -28 5 3 6 -2 3 -11 -4 -10 5 -27 25 -46 19 -18 29 -35 24 -42 -5 -8
-2 -8 9 1 14 11 17 10 23 -7 3 -12 10 -21 15 -21 5 0 12 -9 15 -20 4 -11 15
-20 26 -20 13 0 18 -4 13 -12 -4 -6 -3 -8 3 -5 6 4 18 -4 27 -18 9 -14 23 -25
31 -25 7 0 16 -4 19 -9 4 -5 -4 -7 -16 -4 -21 4 -21 3 -5 -7 14 -9 22 -9 30
-1 6 6 15 11 21 11 6 0 5 -5 -2 -12 -17 -17 75 -81 107 -73 18 5 22 3 18 -9
-8 -19 4 -21 22 -3 11 10 11 8 1 -11 -6 -13 -9 -26 -6 -30 3 -3 6 0 6 6 0 7 8
12 18 12 13 0 14 -2 3 -9 -9 -6 -10 -10 -2 -16 7 -4 18 -1 26 5 15 12 39 5 30
-10 -7 -11 22 -33 35 -25 5 3 10 1 10 -4 0 -6 18 -14 40 -17 23 -4 37 -11 33
-17 -3 -6 6 -8 25 -5 17 2 29 1 26 -4 -3 -4 5 -8 18 -8 18 0 20 -2 8 -10 -13
-8 -12 -10 3 -10 9 0 17 5 17 12 0 7 7 5 18 -5 11 -10 27 -14 42 -11 20 5 22
4 10 -5 -11 -9 -4 -10 30 -6 33 4 40 3 25 -4 -11 -5 -15 -10 -10 -11 6 -1 19
-3 30 -6 11 -2 44 -7 73 -10 47 -5 52 -4 46 13 -6 17 -6 17 8 -1 14 -18 26
-18 198 -12 101 3 186 9 189 13 3 5 24 10 45 11 32 3 38 1 33 -12 -4 -10 -1
-16 8 -16 9 0 12 6 9 15 -7 17 -3 18 49 6 41 -10 49 -5 15 9 -16 6 -6 7 32 3
41 -3 51 -2 40 6 -12 9 -11 11 7 11 12 0 25 5 28 10 4 6 18 10 33 9 39 -1 93
14 93 26 0 18 63 44 92 38 15 -3 27 -1 27 5 0 5 14 15 30 21 17 5 30 15 30 20
0 6 7 11 16 11 8 0 13 4 10 9 -3 5 1 11 9 15 8 3 15 1 15 -4 0 -6 9 -5 20 2
11 7 18 19 15 25 -4 11 21 18 48 14 4 0 7 11 7 25 0 19 -4 25 -15 20 -17 -6
-20 11 -6 33 7 12 13 5 26 -26 l17 -42 48 49 c26 26 57 51 68 54 11 4 22 16
25 26 5 18 2 18 -25 -5 -43 -36 -55 -31 -13 6 19 17 33 35 30 39 -5 8 17 21
49 27 16 3 17 1 6 -14 -7 -10 3 0 23 22 20 22 36 45 36 50 1 6 -3 4 -8 -4 -5
-7 -11 -9 -14 -5 -8 14 16 31 42 29 23 -2 23 -1 5 12 -10 8 -18 19 -16 25 2 6
-2 14 -8 18 -7 4 -8 15 -2 29 7 20 9 19 21 -14 12 -35 41 -49 41 -19 0 8 4 13
9 9 5 -3 13 -1 16 5 4 6 3 10 -2 9 -20 -3 -27 2 -13 11 11 7 12 12 3 21 -9 9
-9 15 2 25 7 8 18 14 24 14 6 0 11 5 11 11 0 6 6 9 14 6 9 -4 18 5 26 26 20
53 33 77 42 77 4 0 8 8 8 18 0 10 3 22 7 26 4 4 8 14 8 22 0 7 4 13 10 13 5 0
15 16 22 36 10 30 10 44 -1 77 -13 36 -13 41 4 58 13 13 21 15 29 7 8 -8 11
-4 11 15 0 19 -5 25 -17 23 -10 -1 -12 0 -5 2 6 3 12 19 12 37 0 17 5 37 12
44 7 7 8 12 4 12 -5 0 -3 7 4 15 13 15 5 39 -11 30 -5 -4 -9 -2 -9 4 0 5 8 12
18 14 16 4 16 5 0 6 -13 1 -18 9 -17 29 0 21 2 23 8 9 6 -17 8 -16 19 7 7 16
8 28 2 31 -6 4 -10 59 -9 128 1 90 -3 134 -15 170 -9 26 -14 52 -11 57 3 6 2
10 -4 10 -5 0 -11 -6 -14 -12 -4 -10 -7 -10 -18 0 -8 8 -9 12 -2 12 7 0 14 9
18 20 7 22 -12 63 -25 55 -6 -4 -9 11 -8 34 2 47 -20 104 -37 97 -9 -3 -11 3
-8 17 4 18 3 19 -6 7 -9 -13 -11 -12 -11 6 0 28 -21 46 -40 34 -8 -5 -18 -6
-22 -4 -4 3 -8 1 -8 -4 0 -6 -9 -8 -20 -5 -11 3 -20 10 -20 15 0 6 -6 8 -14 5
-9 -4 -12 0 -9 13 7 25 40 21 48 -5 6 -20 6 -20 15 0 5 11 9 14 9 8 1 -7 6
-13 12 -13 5 0 7 5 4 10 -3 6 1 10 9 10 9 0 16 5 16 10 0 6 -9 10 -20 10 -11
0 -20 5 -20 11 0 5 5 7 10 4 6 -3 10 -1 10 4 0 6 -5 11 -11 11 -5 0 -8 4 -5 8
2 4 0 14 -6 22 -8 12 -9 11 -4 -4 6 -16 4 -17 -9 -6 -9 7 -14 19 -11 27 3 8 1
11 -4 8 -6 -4 -10 5 -10 20 0 15 -4 24 -10 20 -5 -3 -10 3 -10 14 0 11 -8 25
-17 30 -10 6 -13 11 -6 11 14 0 5 81 -11 93 -7 5 -3 7 9 4 20 -4 20 -1 11 160
-6 104 -5 197 1 251 6 52 6 89 0 93 -5 3 -6 28 -2 55 8 64 7 97 -4 103 -5 3
-11 17 -12 30 -4 23 -4 23 -22 3z m-173 -133 c-3 -5 -11 -9 -17 -9 -7 0 -6 4
3 11 12 9 10 10 -8 6 -19 -5 -21 -3 -11 9 9 11 15 11 25 3 8 -6 11 -15 8 -20z
m-2014 7 c0 -9 -7 -12 -20 -9 -31 8 -34 23 -6 23 16 0 26 -6 26 -14z m2163
-19 c8 -22 -4 -67 -19 -67 -8 0 -14 4 -14 9 0 5 -9 11 -20 14 -11 3 -20 10
-20 17 0 7 9 14 20 17 11 3 20 9 20 14 0 14 27 10 33 -4z m-2083 -8 c0 -14
-25 -39 -39 -39 -16 0 -14 11 6 32 18 20 33 24 33 7z m45 -28 c3 -5 1 -12 -5
-16 -5 -3 -10 1 -10 9 0 18 6 21 15 7z m-115 -27 c0 -2 -9 -4 -21 -4 -11 0
-18 4 -14 10 5 8 35 3 35 -6z m2000 2 c0 -8 -4 -18 -10 -21 -5 -3 -10 -4 -10
-1 0 2 -3 11 -6 20 -4 11 -1 16 10 16 9 0 16 -6 16 -14z m-211 -67 c-24 -15
-45 -11 -24 5 11 8 24 12 28 9 5 -3 3 -9 -4 -14z m-1952 -81 c-2 -13 -4 -3 -4
22 0 25 2 35 4 23 2 -13 2 -33 0 -45z m503 46 c0 -2 -19 -4 -42 -3 -31 0 -37
3 -24 8 18 7 66 3 66 -5z m480 -25 c0 -11 -27 -12 -34 -1 -2 4 4 9 15 9 10 1
19 -2 19 -8z m-640 -31 c0 -4 7 -8 15 -8 8 0 15 -4 15 -10 0 -5 -7 -10 -15
-10 -8 0 -15 5 -15 10 0 6 -7 10 -15 10 -8 0 -15 4 -15 8 0 5 7 9 15 9 8 0 15
-4 15 -9z m1120 2 c0 -5 -2 -10 -4 -10 -3 0 -8 5 -11 10 -3 6 -1 10 4 10 6 0
11 -4 11 -10z m263 -6 c15 -5 25 -24 13 -24 -2 0 -11 -3 -20 -6 -11 -4 -16 0
-16 14 0 11 -5 23 -10 25 -10 5 -2 3 33 -9z m-1090 -1 c-7 -2 -21 -2 -30 0
-10 3 -4 5 12 5 17 0 24 -2 18 -5z m664 1 c-3 -3 -12 -4 -19 -1 -8 3 -5 6 6 6
11 1 17 -2 13 -5z m-247 -16 c0 -11 -28 -10 -35 1 -3 6 4 9 15 8 11 -1 20 -5
20 -9z m1229 -115 c1 -18 -3 -33 -9 -33 -6 0 -9 33 -9 83 2 77 2 79 9 32 5
-27 9 -65 9 -82z m-1923 70 c-4 -4 -14 1 -22 11 -22 31 -17 43 8 19 12 -13 18
-26 14 -30z m152 5 c19 -19 15 -48 -8 -48 -22 0 -29 39 -7 42 6 0 -8 4 -33 8
l-45 7 41 1 c22 1 45 -3 52 -10z m1335 -2 c20 -16 22 -26 4 -26 -7 0 -18 9
-25 20 -14 23 -5 26 21 6z m-448 -16 c3 -5 1 -10 -4 -10 -6 0 -11 5 -11 10 0
6 2 10 4 10 3 0 8 -4 11 -10z m-615 -40 c0 -5 -9 -10 -20 -10 -11 0 -20 5 -20
10 0 6 9 10 20 10 11 0 20 -4 20 -10z m868 -39 c5 -31 -13 -48 -32 -32 -17 14
-17 28 -1 48 14 18 29 10 33 -16z m-1331 2 c-9 -9 -57 -13 -57 -5 0 15 10 19
36 14 14 -2 23 -6 21 -9z m623 -4 c0 -6 -9 -9 -20 -6 -14 3 -20 0 -20 -11 0
-18 -13 -8 -16 13 -2 10 7 15 27 15 16 0 29 -5 29 -11z m1015 1 c3 -5 1 -10
-4 -10 -6 0 -11 5 -11 10 0 6 2 10 4 10 3 0 8 -4 11 -10z m-1552 -7 c-13 -2
-33 -2 -45 0 -13 2 -3 4 22 4 25 0 35 -2 23 -4z m1120 -10 c-13 -2 -33 -2 -45
0 -13 2 -3 4 22 4 25 0 35 -2 23 -4z m787 -33 c0 -33 3 -40 20 -40 17 0 20 -6
19 -37 -2 -31 -3 -33 -6 -10 -4 24 -8 27 -44 27 -21 0 -39 5 -39 10 0 6 7 10
15 10 11 0 15 11 15 40 0 22 5 40 10 40 6 0 10 -18 10 -40z m60 33 c0 -3 -7
-11 -15 -19 -13 -14 -15 -13 -15 4 0 10 7 19 15 19 8 0 15 -2 15 -4z m-2373
-175 c-3 -8 -6 -5 -6 6 -1 11 2 17 5 13 3 -3 4 -12 1 -19z m2293 14 c0 -5 -7
-17 -15 -28 -14 -18 -14 -18 -15 9 0 17 5 27 15 27 8 0 15 -4 15 -8z m-2283
-139 c-3 -10 -5 -4 -5 12 0 17 2 24 5 18 2 -7 2 -21 0 -30z m2340 5 c-3 -7 -5
-2 -5 12 0 14 2 19 5 13 2 -7 2 -19 0 -25z m-2267 -9 c0 -5 -4 -9 -10 -9 -5 0
-10 7 -10 16 0 8 5 12 10 9 6 -3 10 -10 10 -16z m2293 -26 c-4 -10 -9 -11 -19
-2 -10 8 -11 14 -1 24 14 15 28 0 20 -22z m23 -40 c-10 -10 -19 5 -10 18 6 11
8 11 12 0 2 -7 1 -15 -2 -18z m-2406 7 c0 -5 -4 -10 -10 -10 -5 0 -10 5 -10
10 0 6 5 10 10 10 6 0 10 -4 10 -10z m-50 -20 c0 -5 -4 -10 -10 -10 -5 0 -10
5 -10 10 0 6 5 10 10 10 6 0 10 -4 10 -10z m2335 1 c3 -5 1 -12 -5 -16 -5 -3
-10 1 -10 9 0 18 6 21 15 7z m-2295 -25 c0 -9 -30 -14 -35 -6 -4 6 3 10 14 10
12 0 21 -2 21 -4z m2260 -36 c0 -5 -4 -10 -10 -10 -5 0 -10 5 -10 10 0 6 5 10
10 10 6 0 10 -4 10 -10z m-60 -20 c0 -5 -5 -10 -11 -10 -5 0 -7 5 -4 10 3 6 8
10 11 10 2 0 4 -4 4 -10z m-2243 -52 c-3 -8 -6 -5 -6 6 -1 11 2 17 5 13 3 -3
4 -12 1 -19z m2403 -8 c0 -5 -2 -10 -4 -10 -3 0 -8 5 -11 10 -3 6 -1 10 4 10
6 0 11 -4 11 -10z m-2480 -84 c0 -3 -4 -8 -10 -11 -5 -3 -10 -1 -10 4 0 6 5
11 10 11 6 0 10 -2 10 -4z m2652 -13 c4 -16 -1 -17 -46 -13 l-51 5 43 3 c23 2
42 7 42 13 0 15 7 10 12 -8z m-332 -3 c0 -5 -5 -10 -11 -10 -5 0 -7 5 -4 10 3
6 8 10 11 10 2 0 4 -4 4 -10z m385 0 c3 -5 1 -10 -4 -10 -6 0 -11 5 -11 10 0
6 2 10 4 10 3 0 8 -4 11 -10z m-51 -105 c-4 -8 -8 -15 -10 -15 -2 0 -4 7 -4
15 0 8 4 15 10 15 5 0 7 -7 4 -15z m54 -17 c5 -18 5 -37 1 -42 -12 -14 -19 -4
-26 38 -7 46 13 49 25 4z m-2798 -20 c0 -23 -3 -29 -9 -19 -7 11 -9 11 -14 0
-3 -8 -6 -2 -6 12 -1 14 2 29 6 32 14 15 23 5 23 -25z m-16 -71 c-7 -18 -24
-23 -24 -8 0 22 13 42 22 33 5 -5 6 -16 2 -25z m2844 -28 c15 -1 15 -2 1 -6
-11 -2 -15 -11 -12 -22 7 -28 -14 -34 -37 -11 l-21 21 22 20 c12 10 19 19 15
19 -4 0 -4 6 1 13 6 8 9 5 11 -10 2 -13 11 -24 20 -24z m-2803 1 c3 -5 1 -10
-4 -10 -6 0 -11 5 -11 10 0 6 2 10 4 10 3 0 8 -4 11 -10z m-55 -70 c0 -11 -4
-20 -9 -20 -5 0 -7 9 -4 20 3 11 7 20 9 20 2 0 4 -9 4 -20z m-26 -115 c-4 -8
-8 -15 -10 -15 -2 0 -4 7 -4 15 0 8 4 15 10 15 5 0 7 -7 4 -15z m2923 -37 c-2
-13 -4 -5 -4 17 -1 22 1 32 4 23 2 -10 2 -28 0 -40z m-2848 -48 c0 -9 -4 -8
-9 5 -5 11 -9 27 -9 35 0 9 4 8 9 -5 5 -11 9 -27 9 -35z m-42 -122 c-3 -8 -6
-5 -6 6 -1 11 2 17 5 13 3 -3 4 -12 1 -19z m2776 -78 c3 -13 0 -20 -9 -20 -8
0 -14 9 -14 20 0 11 4 20 9 20 5 0 11 -9 14 -20z m-2771 -82 c-9 -9 -12 -7
-12 12 0 19 3 21 12 12 9 -9 9 -15 0 -24z m2799 4 c7 -20 5 -22 -21 -22 -34 0
-35 2 -18 30 15 24 28 21 39 -8z m38 -109 c0 -25 -1 -26 -9 -8 -12 27 -12 35
0 35 6 0 10 -12 9 -27z m-2794 -1 c-3 -3 -11 0 -18 7 -9 10 -8 11 6 5 10 -3
15 -9 12 -12z m2747 -79 c-3 -15 -13 -35 -22 -45 -16 -17 -17 -17 -28 7 -15
32 -15 45 -2 45 6 0 10 -10 10 -22 0 -21 0 -21 14 -2 8 11 10 21 5 22 -6 3 -5
9 2 18 16 20 27 9 21 -23z m-102 -5 c0 -7 -5 -20 -10 -28 -8 -12 -10 -9 -10
13 0 15 5 27 10 27 6 0 10 -6 10 -12z m-174 -42 c24 -25 17 -46 -16 -46 -32 0
-40 19 -17 45 15 18 16 18 33 1z m-2326 -29 c0 -16 -32 -19 -48 -4 -14 15 -13
16 16 14 18 -1 32 -6 32 -10z m2514 -19 c14 -20 14 -24 -1 -40 -9 -10 -25 -18
-36 -18 -19 0 -19 1 -4 18 10 11 14 26 10 40 -7 28 11 29 31 0z m-2554 -30 c0
-5 -4 -8 -10 -8 -5 0 -10 5 -10 10 0 6 -7 10 -15 10 -8 0 -15 7 -15 15 0 14 3
13 25 -2 13 -10 25 -21 25 -25z m37 -8 c-4 -14 0 -20 11 -20 14 0 14 -2 3 -9
-21 -14 -41 9 -27 31 14 24 20 23 13 -2z m2457 -45 c-4 -8 -10 -13 -14 -10 -5
3 -11 -1 -13 -7 -4 -8 -6 -7 -6 4 -1 9 7 19 17 21 9 3 18 5 19 6 1 0 0 -6 -3
-14z m-2347 -30 c0 -8 -4 -15 -9 -15 -10 0 -11 14 -1 23 9 10 10 9 10 -8z
m2153 -17 c0 -5 -4 -8 -10 -8 -5 0 -10 10 -10 23 0 18 2 19 10 7 5 -8 10 -18
10 -22z m133 -5 c-7 -2 -21 -2 -30 0 -10 3 -4 5 12 5 17 0 24 -2 18 -5z m-73
-13 c0 -5 -2 -10 -4 -10 -3 0 -8 5 -11 10 -3 6 -1 10 4 10 6 0 11 -4 11 -10z
m-2160 -71 c0 -5 -4 -9 -10 -9 -5 0 -10 5 -10 11 0 5 -5 7 -12 3 -7 -4 -8 -3
-4 4 7 12 36 5 36 -9z m-10 -23 c0 -11 -19 -15 -25 -6 -3 5 1 10 9 10 9 0 16
-2 16 -4z m2210 -27 c0 -10 -4 -19 -10 -19 -5 0 -10 4 -10 9 0 5 -3 17 -6 25
-5 12 -2 15 10 10 9 -3 16 -15 16 -25z m-440 -19 c0 -5 -5 -10 -11 -10 -5 0
-7 5 -4 10 3 6 8 10 11 10 2 0 4 -4 4 -10z m-1543 -72 c-2 -13 -4 -3 -4 22 0
25 2 35 4 23 2 -13 2 -33 0 -45z m1783 42 c0 -13 -5 -18 -15 -14 -12 5 -13 10
-4 20 15 19 19 18 19 -6z m80 10 c0 -5 -2 -10 -4 -10 -3 0 -8 5 -11 10 -3 6
-1 10 4 10 6 0 11 -4 11 -10z m40 -16 c0 -3 -7 -12 -15 -21 -20 -19 -32 -10
-14 11 14 15 29 21 29 10z m-2038 -39 c3 -13 1 -22 -3 -19 -9 5 -13 44 -5 44
2 0 6 -11 8 -25z m1850 -14 c-11 -7 -11 -9 1 -14 10 -4 13 -13 10 -27 -3 -12
-11 -19 -18 -16 -8 3 -16 -6 -20 -21 -4 -19 -9 -23 -17 -15 -9 9 -7 17 6 31
11 12 16 27 12 37 -6 17 8 34 29 34 6 0 4 -4 -3 -9z m-165 -38 c-3 -10 -5 -4
-5 12 0 17 2 24 5 18 2 -7 2 -21 0 -30z m33 -43 c0 -11 -4 -20 -10 -20 -5 0
-10 2 -10 4 0 2 -3 11 -6 20 -4 11 -1 16 10 16 9 0 16 -8 16 -20z m230 -4 c0
-2 -7 -7 -16 -10 -8 -3 -12 -2 -9 4 6 10 25 14 25 6z m-1750 -15 c0 -6 -4 -13
-10 -16 -5 -3 -10 1 -10 9 0 9 5 16 10 16 6 0 10 -4 10 -9z m-8 -40 c8 11 9
11 6 1 -4 -16 -22 -18 -24 -2 -2 7 -1 6 3 -1 4 -8 8 -7 15 2z m948 -51 c0 -16
-4 -31 -10 -31 -29 -5 -33 -1 -34 29 -1 27 3 32 22 32 18 0 22 -6 22 -30z
m517 3 c-8 -7 -37 9 -31 19 3 5 12 4 20 -3 8 -6 13 -14 11 -16z m-57 7 c0 -5
-4 -10 -10 -10 -5 0 -10 5 -10 10 0 6 5 10 10 10 6 0 10 -4 10 -10z m130 -10
c0 -5 -10 -10 -22 -10 -19 0 -20 2 -8 10 19 13 30 13 30 0z m-121 -32 c8 3 12
-1 9 -9 -3 -8 -18 -16 -34 -17 -16 -2 -26 0 -22 4 4 4 3 13 -4 21 -9 11 -7 12
13 5 13 -5 30 -7 38 -4z m-149 -28 c0 -19 -18 -19 -23 -1 -3 14 -1 18 9 14 8
-3 14 -9 14 -13z m-1051 -10 c-6 -5 -18 -6 -26 -3 -19 8 -16 11 13 11 17 0 22
-3 13 -8z m1158 -16 c-3 -3 -12 -4 -19 -1 -8 3 -5 6 6 6 11 1 17 -2 13 -5z
m-668 -38 c8 -10 9 -16 1 -21 -12 -7 -42 19 -33 29 10 10 20 7 32 -8z m-309
-6 c-20 -13 -33 -13 -25 0 3 6 14 10 23 10 15 0 15 -2 2 -10z m505 -10 c-3 -5
-10 -10 -16 -10 -5 0 -9 5 -9 10 0 6 7 10 16 10 8 0 12 -4 9 -10z m130 0 c7
-12 -12 -12 -40 0 -18 8 -17 9 7 9 15 1 30 -3 33 -9z m90 0 c3 -5 -3 -10 -15
-10 -12 0 -18 5 -15 10 3 6 10 10 15 10 5 0 12 -4 15 -10z m-275 -20 c0 -5 -5
-10 -11 -10 -5 0 -7 5 -4 10 3 6 8 10 11 10 2 0 4 -4 4 -10z"/>
<path d="M1458 2763 c6 -2 18 -2 25 0 6 3 1 5 -13 5 -14 0 -19 -2 -12 -5z"/>
<path d="M2193 2753 c-13 -2 -23 -9 -23 -14 0 -14 26 -11 40 6 7 8 11 14 9 14
-2 -1 -14 -4 -26 -6z"/>
<path d="M231 2034 c0 -11 3 -14 6 -6 3 7 2 16 -1 19 -3 4 -6 -2 -5 -13z"/>
<path d="M71 1294 c0 -11 3 -14 6 -6 3 7 2 16 -1 19 -3 4 -6 -2 -5 -13z"/>
<path d="M3021 1204 c0 -11 3 -14 6 -6 3 7 2 16 -1 19 -3 4 -6 -2 -5 -13z"/>
<path d="M2985 1090 c-16 -7 -17 -9 -3 -9 9 -1 20 4 23 9 7 11 7 11 -20 0z"/>
<path d="M2992 1050 c0 -14 2 -19 5 -12 2 6 2 18 0 25 -3 6 -5 1 -5 -13z"/>
<path d="M2901 814 c0 -11 3 -14 6 -6 3 7 2 16 -1 19 -3 4 -6 -2 -5 -13z"/>
<path d="M2820 715 c0 -9 6 -12 15 -9 8 4 15 7 15 9 0 2 -7 5 -15 9 -9 3 -15
0 -15 -9z"/>
<path d="M2642 485 c0 -16 2 -22 5 -12 2 9 2 23 0 30 -3 6 -5 -1 -5 -18z"/>
<path d="M2190 175 c-14 -8 -20 -14 -14 -15 5 0 19 7 30 15 24 18 16 19 -16 0z"/>
</g>
</svg>
